<svg width="30" height="20" viewBox="0 0 30 20" fill="none" xmlns="http://www.w3.org/2000/svg">
<path d="M3 20C2.175 20 1.46875 19.7552 0.88125 19.2656C0.29375 18.776 0 18.1875 0 17.5V2.5C0 1.8125 0.29375 1.22396 0.88125 0.734375C1.46875 0.244792 2.175 0 3 0H27C27.825 0 28.5313 0.244792 29.1188 0.734375C29.7063 1.22396 30 1.8125 30 2.5V17.5C30 18.1875 29.7063 18.776 29.1188 19.2656C28.5313 19.7552 27.825 20 27 20H3ZM27 5L15.7875 10.8438C15.6625 10.9062 15.5313 10.9531 15.3938 10.9844C15.2563 11.0156 15.125 11.0312 15 11.0312C14.875 11.0312 14.7438 11.0156 14.6063 10.9844C14.4688 10.9531 14.3375 10.9062 14.2125 10.8438L3 5V17.5H27V5ZM15 8.75L27 2.5H3L15 8.75ZM3 5.3125V3.46875V3.5V3.48438V5.3125Z" fill="#525252"/>
</svg>
