<svg width="26" height="26" viewBox="0 0 26 26" fill="none" xmlns="http://www.w3.org/2000/svg">
<path d="M3.45831 22.8095H8.14581V14.2381H17.5208V22.8095H22.2083V9.95237L12.8333 3.5238L3.45831 9.95237V22.8095ZM3.45831 25.6667C2.59894 25.6667 1.86326 25.3869 1.25128 24.8274C0.639303 24.2678 0.333313 23.5952 0.333313 22.8095V9.95237C0.333313 9.49999 0.44399 9.07142 0.665344 8.66666C0.886698 8.26189 1.19269 7.92856 1.58331 7.66666L10.9583 1.23809C11.2448 1.04761 11.5443 0.904752 11.8568 0.809514C12.1693 0.714276 12.4948 0.666656 12.8333 0.666656C13.1719 0.666656 13.4974 0.714276 13.8099 0.809514C14.1224 0.904752 14.4219 1.04761 14.7083 1.23809L24.0833 7.66666C24.4739 7.92856 24.7799 8.26189 25.0013 8.66666C25.2226 9.07142 25.3333 9.49999 25.3333 9.95237V22.8095C25.3333 23.5952 25.0273 24.2678 24.4153 24.8274C23.8034 25.3869 23.0677 25.6667 22.2083 25.6667H14.3958V17.0952H11.2708V25.6667H3.45831Z" fill="Black"/>
</svg>
