<svg width="25" height="25" viewBox="0 0 25 25" fill="none" xmlns="http://www.w3.org/2000/svg">
<path d="M2.96322 3.125C2.5772 3.125 2.25363 2.97526 1.99251 2.67578C1.73138 2.3763 1.60082 2.00521 1.60082 1.5625C1.60082 1.11979 1.73138 0.748698 1.99251 0.449219C2.25363 0.14974 2.5772 0 2.96322 0H22.0368C22.4228 0 22.7464 0.14974 23.0075 0.449219C23.2686 0.748698 23.3992 1.11979 23.3992 1.5625C23.3992 2.00521 23.2686 2.3763 23.0075 2.67578C22.7464 2.97526 22.4228 3.125 22.0368 3.125H2.96322ZM2.96322 25C2.5772 25 2.25363 24.8503 1.99251 24.5508C1.73138 24.2513 1.60082 23.8802 1.60082 23.4375V15.625H1.3624C0.930972 15.625 0.579019 15.4362 0.30654 15.0586C0.0340599 14.681 -0.0567666 14.2448 0.0340599 13.75L1.39646 5.9375C1.46458 5.57292 1.62352 5.27344 1.8733 5.03906C2.12307 4.80469 2.4069 4.6875 2.7248 4.6875H22.2752C22.5931 4.6875 22.8769 4.80469 23.1267 5.03906C23.3765 5.27344 23.5354 5.57292 23.6035 5.9375L24.9659 13.75C25.0568 14.2448 24.9659 14.681 24.6935 15.0586C24.421 15.4362 24.069 15.625 23.6376 15.625H23.3992V23.4375C23.3992 23.8802 23.2686 24.2513 23.0075 24.5508C22.7464 24.8503 22.4228 25 22.0368 25C21.6508 25 21.3272 24.8503 21.0661 24.5508C20.805 24.2513 20.6744 23.8802 20.6744 23.4375V15.625H15.2248V23.4375C15.2248 23.8802 15.0942 24.2513 14.8331 24.5508C14.572 24.8503 14.2484 25 13.8624 25H2.96322ZM4.32561 21.875H12.5V15.625H4.32561V21.875ZM3.03134 12.5H21.9687L21.1512 7.8125H3.84877L3.03134 12.5Z" fill="black"/>
</svg>
