<svg width="25" height="25" viewBox="0 0 25 25" fill="none" xmlns="http://www.w3.org/2000/svg">
<path d="M2.84091 25C2.05966 25 1.39086 24.728 0.834517 24.184C0.278172 23.64 0 22.9861 0 22.2222V2.77778C0 2.01389 0.278172 1.35995 0.834517 0.815972C1.39086 0.271991 2.05966 0 2.84091 0H11.3636C11.7661 0 12.1035 0.133102 12.3757 0.399306C12.648 0.665509 12.7841 0.99537 12.7841 1.38889C12.7841 1.78241 12.648 2.11227 12.3757 2.37847C12.1035 2.64468 11.7661 2.77778 11.3636 2.77778H2.84091V22.2222H11.3636C11.7661 22.2222 12.1035 22.3553 12.3757 22.6215C12.648 22.8877 12.7841 23.2176 12.7841 23.6111C12.7841 24.0046 12.648 24.3345 12.3757 24.6007C12.1035 24.8669 11.7661 25 11.3636 25H2.84091ZM20.1349 13.8889H9.94318C9.54072 13.8889 9.20336 13.7558 8.93111 13.4896C8.65885 13.2234 8.52273 12.8935 8.52273 12.5C8.52273 12.1065 8.65885 11.7766 8.93111 11.5104C9.20336 11.2442 9.54072 11.1111 9.94318 11.1111H20.1349L17.4716 8.50694C17.2112 8.25232 17.081 7.93982 17.081 7.56944C17.081 7.19907 17.2112 6.875 17.4716 6.59722C17.732 6.31944 18.0634 6.17477 18.4659 6.16319C18.8684 6.15162 19.2116 6.28472 19.4957 6.5625L24.5739 11.5278C24.858 11.8056 25 12.1296 25 12.5C25 12.8704 24.858 13.1944 24.5739 13.4722L19.4957 18.4375C19.2116 18.7153 18.8743 18.8484 18.4837 18.8368C18.093 18.8252 17.7557 18.6806 17.4716 18.4028C17.2112 18.125 17.0869 17.7951 17.0987 17.4132C17.1106 17.0312 17.2467 16.713 17.5071 16.4583L20.1349 13.8889Z" fill="black"/>
</svg>
